<?xml version="1.0" encoding="utf-8"?>
<svg xmlns="http://www.w3.org/2000/svg" xmlns:xlink="http://www.w3.org/1999/xlink" width="600" height="400" viewBox="0 0 2400 1600">
<defs>
  <clipPath id="clip400">
    <rect x="0" y="0" width="2400" height="1600"/>
  </clipPath>
</defs>
<path clip-path="url(#clip400)" d="M0 1600 L2400 1600 L2400 0 L0 0  Z" fill="#ffffff" fill-rule="evenodd" fill-opacity="1"/>
<defs>
  <clipPath id="clip401">
    <rect x="480" y="0" width="1681" height="1600"/>
  </clipPath>
</defs>
<path clip-path="url(#clip400)" d="M242.135 1423.18 L2352.76 1423.18 L2352.76 47.2441 L242.135 47.2441  Z" fill="#ffffff" fill-rule="evenodd" fill-opacity="1"/>
<defs>
  <clipPath id="clip402">
    <rect x="242" y="47" width="2112" height="1377"/>
  </clipPath>
</defs>
<polyline clip-path="url(#clip402)" style="stroke:#000000; stroke-linecap:round; stroke-linejoin:round; stroke-width:2; stroke-opacity:0.1; fill:none" points="301.869,1423.18 301.869,47.2441 "/>
<polyline clip-path="url(#clip402)" style="stroke:#000000; stroke-linecap:round; stroke-linejoin:round; stroke-width:2; stroke-opacity:0.1; fill:none" points="633.728,1423.18 633.728,47.2441 "/>
<polyline clip-path="url(#clip402)" style="stroke:#000000; stroke-linecap:round; stroke-linejoin:round; stroke-width:2; stroke-opacity:0.1; fill:none" points="965.587,1423.18 965.587,47.2441 "/>
<polyline clip-path="url(#clip402)" style="stroke:#000000; stroke-linecap:round; stroke-linejoin:round; stroke-width:2; stroke-opacity:0.1; fill:none" points="1297.45,1423.18 1297.45,47.2441 "/>
<polyline clip-path="url(#clip402)" style="stroke:#000000; stroke-linecap:round; stroke-linejoin:round; stroke-width:2; stroke-opacity:0.1; fill:none" points="1629.3,1423.18 1629.3,47.2441 "/>
<polyline clip-path="url(#clip402)" style="stroke:#000000; stroke-linecap:round; stroke-linejoin:round; stroke-width:2; stroke-opacity:0.1; fill:none" points="1961.16,1423.18 1961.16,47.2441 "/>
<polyline clip-path="url(#clip402)" style="stroke:#000000; stroke-linecap:round; stroke-linejoin:round; stroke-width:2; stroke-opacity:0.1; fill:none" points="2293.02,1423.18 2293.02,47.2441 "/>
<polyline clip-path="url(#clip402)" style="stroke:#000000; stroke-linecap:round; stroke-linejoin:round; stroke-width:2; stroke-opacity:0.1; fill:none" points="242.135,1350.29 2352.76,1350.29 "/>
<polyline clip-path="url(#clip402)" style="stroke:#000000; stroke-linecap:round; stroke-linejoin:round; stroke-width:2; stroke-opacity:0.1; fill:none" points="242.135,1140.88 2352.76,1140.88 "/>
<polyline clip-path="url(#clip402)" style="stroke:#000000; stroke-linecap:round; stroke-linejoin:round; stroke-width:2; stroke-opacity:0.1; fill:none" points="242.135,931.468 2352.76,931.468 "/>
<polyline clip-path="url(#clip402)" style="stroke:#000000; stroke-linecap:round; stroke-linejoin:round; stroke-width:2; stroke-opacity:0.1; fill:none" points="242.135,722.054 2352.76,722.054 "/>
<polyline clip-path="url(#clip402)" style="stroke:#000000; stroke-linecap:round; stroke-linejoin:round; stroke-width:2; stroke-opacity:0.1; fill:none" points="242.135,512.641 2352.76,512.641 "/>
<polyline clip-path="url(#clip402)" style="stroke:#000000; stroke-linecap:round; stroke-linejoin:round; stroke-width:2; stroke-opacity:0.1; fill:none" points="242.135,303.227 2352.76,303.227 "/>
<polyline clip-path="url(#clip402)" style="stroke:#000000; stroke-linecap:round; stroke-linejoin:round; stroke-width:2; stroke-opacity:0.1; fill:none" points="242.135,93.8134 2352.76,93.8134 "/>
<polyline clip-path="url(#clip400)" style="stroke:#000000; stroke-linecap:round; stroke-linejoin:round; stroke-width:4; stroke-opacity:1; fill:none" points="242.135,1423.18 2352.76,1423.18 "/>
<polyline clip-path="url(#clip400)" style="stroke:#000000; stroke-linecap:round; stroke-linejoin:round; stroke-width:4; stroke-opacity:1; fill:none" points="301.869,1423.18 301.869,1404.28 "/>
<polyline clip-path="url(#clip400)" style="stroke:#000000; stroke-linecap:round; stroke-linejoin:round; stroke-width:4; stroke-opacity:1; fill:none" points="633.728,1423.18 633.728,1404.28 "/>
<polyline clip-path="url(#clip400)" style="stroke:#000000; stroke-linecap:round; stroke-linejoin:round; stroke-width:4; stroke-opacity:1; fill:none" points="965.587,1423.18 965.587,1404.28 "/>
<polyline clip-path="url(#clip400)" style="stroke:#000000; stroke-linecap:round; stroke-linejoin:round; stroke-width:4; stroke-opacity:1; fill:none" points="1297.45,1423.18 1297.45,1404.28 "/>
<polyline clip-path="url(#clip400)" style="stroke:#000000; stroke-linecap:round; stroke-linejoin:round; stroke-width:4; stroke-opacity:1; fill:none" points="1629.3,1423.18 1629.3,1404.28 "/>
<polyline clip-path="url(#clip400)" style="stroke:#000000; stroke-linecap:round; stroke-linejoin:round; stroke-width:4; stroke-opacity:1; fill:none" points="1961.16,1423.18 1961.16,1404.28 "/>
<polyline clip-path="url(#clip400)" style="stroke:#000000; stroke-linecap:round; stroke-linejoin:round; stroke-width:4; stroke-opacity:1; fill:none" points="2293.02,1423.18 2293.02,1404.28 "/>
<path clip-path="url(#clip400)" d="M271.337 1468.75 L301.013 1468.75 L301.013 1472.69 L271.337 1472.69 L271.337 1468.75 Z" fill="#000000" fill-rule="nonzero" fill-opacity="1" /><path clip-path="url(#clip400)" d="M325.272 1466.95 Q328.628 1467.66 330.503 1469.93 Q332.401 1472.2 332.401 1475.53 Q332.401 1480.65 328.883 1483.45 Q325.364 1486.25 318.883 1486.25 Q316.707 1486.25 314.392 1485.81 Q312.101 1485.39 309.647 1484.54 L309.647 1480.02 Q311.591 1481.16 313.906 1481.74 Q316.221 1482.32 318.744 1482.32 Q323.142 1482.32 325.434 1480.58 Q327.749 1478.84 327.749 1475.53 Q327.749 1472.48 325.596 1470.77 Q323.466 1469.03 319.647 1469.03 L315.619 1469.03 L315.619 1465.19 L319.832 1465.19 Q323.281 1465.19 325.11 1463.82 Q326.939 1462.43 326.939 1459.84 Q326.939 1457.18 325.04 1455.77 Q323.165 1454.33 319.647 1454.33 Q317.726 1454.33 315.527 1454.75 Q313.328 1455.16 310.689 1456.04 L310.689 1451.88 Q313.351 1451.14 315.665 1450.77 Q318.003 1450.39 320.064 1450.39 Q325.388 1450.39 328.489 1452.83 Q331.591 1455.23 331.591 1459.35 Q331.591 1462.22 329.948 1464.21 Q328.304 1466.18 325.272 1466.95 Z" fill="#000000" fill-rule="nonzero" fill-opacity="1" /><path clip-path="url(#clip400)" d="M603.67 1468.75 L633.346 1468.75 L633.346 1472.69 L603.67 1472.69 L603.67 1468.75 Z" fill="#000000" fill-rule="nonzero" fill-opacity="1" /><path clip-path="url(#clip400)" d="M647.466 1481.64 L663.786 1481.64 L663.786 1485.58 L641.841 1485.58 L641.841 1481.64 Q644.503 1478.89 649.087 1474.26 Q653.693 1469.61 654.874 1468.27 Q657.119 1465.74 657.999 1464.01 Q658.901 1462.25 658.901 1460.56 Q658.901 1457.8 656.957 1456.07 Q655.036 1454.33 651.934 1454.33 Q649.735 1454.33 647.281 1455.09 Q644.851 1455.86 642.073 1457.41 L642.073 1452.69 Q644.897 1451.55 647.351 1450.97 Q649.804 1450.39 651.841 1450.39 Q657.212 1450.39 660.406 1453.08 Q663.6 1455.77 663.6 1460.26 Q663.6 1462.39 662.79 1464.31 Q662.003 1466.2 659.897 1468.8 Q659.318 1469.47 656.216 1472.69 Q653.114 1475.88 647.466 1481.64 Z" fill="#000000" fill-rule="nonzero" fill-opacity="1" /><path clip-path="url(#clip400)" d="M935.344 1468.75 L965.019 1468.75 L965.019 1472.69 L935.344 1472.69 L935.344 1468.75 Z" fill="#000000" fill-rule="nonzero" fill-opacity="1" /><path clip-path="url(#clip400)" d="M975.922 1481.64 L983.561 1481.64 L983.561 1455.28 L975.251 1456.95 L975.251 1452.69 L983.515 1451.02 L988.191 1451.02 L988.191 1481.64 L995.829 1481.64 L995.829 1485.58 L975.922 1485.58 L975.922 1481.64 Z" fill="#000000" fill-rule="nonzero" fill-opacity="1" /><path clip-path="url(#clip400)" d="M1297.45 1454.1 Q1293.83 1454.1 1292.01 1457.66 Q1290.2 1461.2 1290.2 1468.33 Q1290.2 1475.44 1292.01 1479.01 Q1293.83 1482.55 1297.45 1482.55 Q1301.08 1482.55 1302.89 1479.01 Q1304.71 1475.44 1304.71 1468.33 Q1304.71 1461.2 1302.89 1457.66 Q1301.08 1454.1 1297.45 1454.1 M1297.45 1450.39 Q1303.26 1450.39 1306.31 1455 Q1309.39 1459.58 1309.39 1468.33 Q1309.39 1477.06 1306.31 1481.67 Q1303.26 1486.25 1297.45 1486.25 Q1291.64 1486.25 1288.56 1481.67 Q1285.5 1477.06 1285.5 1468.33 Q1285.5 1459.58 1288.56 1455 Q1291.64 1450.39 1297.45 1450.39 Z" fill="#000000" fill-rule="nonzero" fill-opacity="1" /><path clip-path="url(#clip400)" d="M1619.69 1481.64 L1627.32 1481.64 L1627.32 1455.28 L1619.01 1456.95 L1619.01 1452.69 L1627.28 1451.02 L1631.95 1451.02 L1631.95 1481.64 L1639.59 1481.64 L1639.59 1485.58 L1619.69 1485.58 L1619.69 1481.64 Z" fill="#000000" fill-rule="nonzero" fill-opacity="1" /><path clip-path="url(#clip400)" d="M1955.82 1481.64 L1972.13 1481.64 L1972.13 1485.58 L1950.19 1485.58 L1950.19 1481.64 Q1952.85 1478.89 1957.44 1474.26 Q1962.04 1469.61 1963.22 1468.27 Q1965.47 1465.74 1966.35 1464.01 Q1967.25 1462.25 1967.25 1460.56 Q1967.25 1457.8 1965.31 1456.07 Q1963.38 1454.33 1960.28 1454.33 Q1958.08 1454.33 1955.63 1455.09 Q1953.2 1455.86 1950.42 1457.41 L1950.42 1452.69 Q1953.25 1451.55 1955.7 1450.97 Q1958.15 1450.39 1960.19 1450.39 Q1965.56 1450.39 1968.76 1453.08 Q1971.95 1455.77 1971.95 1460.26 Q1971.95 1462.39 1971.14 1464.31 Q1970.35 1466.2 1968.25 1468.8 Q1967.67 1469.47 1964.57 1472.69 Q1961.46 1475.88 1955.82 1481.64 Z" fill="#000000" fill-rule="nonzero" fill-opacity="1" /><path clip-path="url(#clip400)" d="M2297.27 1466.95 Q2300.63 1467.66 2302.5 1469.93 Q2304.4 1472.2 2304.4 1475.53 Q2304.4 1480.65 2300.88 1483.45 Q2297.36 1486.25 2290.88 1486.25 Q2288.7 1486.25 2286.39 1485.81 Q2284.1 1485.39 2281.64 1484.54 L2281.64 1480.02 Q2283.59 1481.16 2285.9 1481.74 Q2288.22 1482.32 2290.74 1482.32 Q2295.14 1482.32 2297.43 1480.58 Q2299.75 1478.84 2299.75 1475.53 Q2299.75 1472.48 2297.59 1470.77 Q2295.46 1469.03 2291.64 1469.03 L2287.62 1469.03 L2287.62 1465.19 L2291.83 1465.19 Q2295.28 1465.19 2297.11 1463.82 Q2298.94 1462.43 2298.94 1459.84 Q2298.94 1457.18 2297.04 1455.77 Q2295.16 1454.33 2291.64 1454.33 Q2289.72 1454.33 2287.52 1454.75 Q2285.32 1455.16 2282.69 1456.04 L2282.69 1451.88 Q2285.35 1451.14 2287.66 1450.77 Q2290 1450.39 2292.06 1450.39 Q2297.38 1450.39 2300.49 1452.83 Q2303.59 1455.23 2303.59 1459.35 Q2303.59 1462.22 2301.94 1464.21 Q2300.3 1466.18 2297.27 1466.95 Z" fill="#000000" fill-rule="nonzero" fill-opacity="1" /><path clip-path="url(#clip400)" d="M1314.06 1532.4 L1301.17 1549.74 L1314.73 1568.04 L1307.82 1568.04 L1297.45 1554.04 L1287.07 1568.04 L1280.16 1568.04 L1294.01 1549.39 L1281.34 1532.4 L1288.25 1532.4 L1297.7 1545.1 L1307.15 1532.4 L1314.06 1532.4 Z" fill="#000000" fill-rule="nonzero" fill-opacity="1" /><polyline clip-path="url(#clip400)" style="stroke:#000000; stroke-linecap:round; stroke-linejoin:round; stroke-width:4; stroke-opacity:1; fill:none" points="242.135,1423.18 242.135,47.2441 "/>
<polyline clip-path="url(#clip400)" style="stroke:#000000; stroke-linecap:round; stroke-linejoin:round; stroke-width:4; stroke-opacity:1; fill:none" points="242.135,1350.29 261.032,1350.29 "/>
<polyline clip-path="url(#clip400)" style="stroke:#000000; stroke-linecap:round; stroke-linejoin:round; stroke-width:4; stroke-opacity:1; fill:none" points="242.135,1140.88 261.032,1140.88 "/>
<polyline clip-path="url(#clip400)" style="stroke:#000000; stroke-linecap:round; stroke-linejoin:round; stroke-width:4; stroke-opacity:1; fill:none" points="242.135,931.468 261.032,931.468 "/>
<polyline clip-path="url(#clip400)" style="stroke:#000000; stroke-linecap:round; stroke-linejoin:round; stroke-width:4; stroke-opacity:1; fill:none" points="242.135,722.054 261.032,722.054 "/>
<polyline clip-path="url(#clip400)" style="stroke:#000000; stroke-linecap:round; stroke-linejoin:round; stroke-width:4; stroke-opacity:1; fill:none" points="242.135,512.641 261.032,512.641 "/>
<polyline clip-path="url(#clip400)" style="stroke:#000000; stroke-linecap:round; stroke-linejoin:round; stroke-width:4; stroke-opacity:1; fill:none" points="242.135,303.227 261.032,303.227 "/>
<polyline clip-path="url(#clip400)" style="stroke:#000000; stroke-linecap:round; stroke-linejoin:round; stroke-width:4; stroke-opacity:1; fill:none" points="242.135,93.8134 261.032,93.8134 "/>
<path clip-path="url(#clip400)" d="M115.256 1350.75 L144.931 1350.75 L144.931 1354.68 L115.256 1354.68 L115.256 1350.75 Z" fill="#000000" fill-rule="nonzero" fill-opacity="1" /><path clip-path="url(#clip400)" d="M155.834 1363.64 L163.473 1363.64 L163.473 1337.27 L155.163 1338.94 L155.163 1334.68 L163.427 1333.01 L168.102 1333.01 L168.102 1363.64 L175.741 1363.64 L175.741 1367.57 L155.834 1367.57 L155.834 1363.64 Z" fill="#000000" fill-rule="nonzero" fill-opacity="1" /><path clip-path="url(#clip400)" d="M185.232 1333.01 L203.588 1333.01 L203.588 1336.95 L189.514 1336.95 L189.514 1345.42 Q190.533 1345.07 191.551 1344.91 Q192.57 1344.73 193.588 1344.73 Q199.375 1344.73 202.755 1347.9 Q206.135 1351.07 206.135 1356.49 Q206.135 1362.07 202.662 1365.17 Q199.19 1368.25 192.871 1368.25 Q190.695 1368.25 188.426 1367.88 Q186.181 1367.51 183.774 1366.76 L183.774 1362.07 Q185.857 1363.2 188.079 1363.76 Q190.301 1364.31 192.778 1364.31 Q196.783 1364.31 199.121 1362.2 Q201.459 1360.1 201.459 1356.49 Q201.459 1352.88 199.121 1350.77 Q196.783 1348.66 192.778 1348.66 Q190.903 1348.66 189.028 1349.08 Q187.176 1349.5 185.232 1350.38 L185.232 1333.01 Z" fill="#000000" fill-rule="nonzero" fill-opacity="1" /><path clip-path="url(#clip400)" d="M114.26 1141.33 L143.936 1141.33 L143.936 1145.27 L114.26 1145.27 L114.26 1141.33 Z" fill="#000000" fill-rule="nonzero" fill-opacity="1" /><path clip-path="url(#clip400)" d="M154.839 1154.23 L162.477 1154.23 L162.477 1127.86 L154.167 1129.53 L154.167 1125.27 L162.431 1123.6 L167.107 1123.6 L167.107 1154.23 L174.746 1154.23 L174.746 1158.16 L154.839 1158.16 L154.839 1154.23 Z" fill="#000000" fill-rule="nonzero" fill-opacity="1" /><path clip-path="url(#clip400)" d="M194.19 1126.68 Q190.579 1126.68 188.75 1130.24 Q186.945 1133.79 186.945 1140.92 Q186.945 1148.02 188.75 1151.59 Q190.579 1155.13 194.19 1155.13 Q197.825 1155.13 199.63 1151.59 Q201.459 1148.02 201.459 1140.92 Q201.459 1133.79 199.63 1130.24 Q197.825 1126.68 194.19 1126.68 M194.19 1122.98 Q200 1122.98 203.056 1127.58 Q206.135 1132.17 206.135 1140.92 Q206.135 1149.64 203.056 1154.25 Q200 1158.83 194.19 1158.83 Q188.38 1158.83 185.301 1154.25 Q182.246 1149.64 182.246 1140.92 Q182.246 1132.17 185.301 1127.58 Q188.38 1122.98 194.19 1122.98 Z" fill="#000000" fill-rule="nonzero" fill-opacity="1" /><path clip-path="url(#clip400)" d="M145.417 931.919 L175.093 931.919 L175.093 935.854 L145.417 935.854 L145.417 931.919 Z" fill="#000000" fill-rule="nonzero" fill-opacity="1" /><path clip-path="url(#clip400)" d="M185.232 914.188 L203.588 914.188 L203.588 918.123 L189.514 918.123 L189.514 926.595 Q190.533 926.248 191.551 926.086 Q192.57 925.901 193.588 925.901 Q199.375 925.901 202.755 929.072 Q206.135 932.243 206.135 937.66 Q206.135 943.238 202.662 946.34 Q199.19 949.419 192.871 949.419 Q190.695 949.419 188.426 949.049 Q186.181 948.678 183.774 947.938 L183.774 943.238 Q185.857 944.373 188.079 944.928 Q190.301 945.484 192.778 945.484 Q196.783 945.484 199.121 943.377 Q201.459 941.271 201.459 937.66 Q201.459 934.049 199.121 931.942 Q196.783 929.836 192.778 929.836 Q190.903 929.836 189.028 930.252 Q187.176 930.669 185.232 931.549 L185.232 914.188 Z" fill="#000000" fill-rule="nonzero" fill-opacity="1" /><path clip-path="url(#clip400)" d="M194.19 707.853 Q190.579 707.853 188.75 711.418 Q186.945 714.959 186.945 722.089 Q186.945 729.195 188.75 732.76 Q190.579 736.302 194.19 736.302 Q197.825 736.302 199.63 732.76 Q201.459 729.195 201.459 722.089 Q201.459 714.959 199.63 711.418 Q197.825 707.853 194.19 707.853 M194.19 704.149 Q200 704.149 203.056 708.756 Q206.135 713.339 206.135 722.089 Q206.135 730.816 203.056 735.422 Q200 740.005 194.19 740.005 Q188.38 740.005 185.301 735.422 Q182.246 730.816 182.246 722.089 Q182.246 713.339 185.301 708.756 Q188.38 704.149 194.19 704.149 Z" fill="#000000" fill-rule="nonzero" fill-opacity="1" /><path clip-path="url(#clip400)" d="M185.232 495.361 L203.588 495.361 L203.588 499.296 L189.514 499.296 L189.514 507.768 Q190.533 507.421 191.551 507.259 Q192.57 507.073 193.588 507.073 Q199.375 507.073 202.755 510.245 Q206.135 513.416 206.135 518.833 Q206.135 524.411 202.662 527.513 Q199.19 530.592 192.871 530.592 Q190.695 530.592 188.426 530.221 Q186.181 529.851 183.774 529.11 L183.774 524.411 Q185.857 525.546 188.079 526.101 Q190.301 526.657 192.778 526.657 Q196.783 526.657 199.121 524.55 Q201.459 522.444 201.459 518.833 Q201.459 515.222 199.121 513.115 Q196.783 511.009 192.778 511.009 Q190.903 511.009 189.028 511.425 Q187.176 511.842 185.232 512.722 L185.232 495.361 Z" fill="#000000" fill-rule="nonzero" fill-opacity="1" /><path clip-path="url(#clip400)" d="M154.839 316.572 L162.477 316.572 L162.477 290.206 L154.167 291.873 L154.167 287.614 L162.431 285.947 L167.107 285.947 L167.107 316.572 L174.746 316.572 L174.746 320.507 L154.839 320.507 L154.839 316.572 Z" fill="#000000" fill-rule="nonzero" fill-opacity="1" /><path clip-path="url(#clip400)" d="M194.19 289.026 Q190.579 289.026 188.75 292.59 Q186.945 296.132 186.945 303.262 Q186.945 310.368 188.75 313.933 Q190.579 317.475 194.19 317.475 Q197.825 317.475 199.63 313.933 Q201.459 310.368 201.459 303.262 Q201.459 296.132 199.63 292.59 Q197.825 289.026 194.19 289.026 M194.19 285.322 Q200 285.322 203.056 289.928 Q206.135 294.512 206.135 303.262 Q206.135 311.989 203.056 316.595 Q200 321.178 194.19 321.178 Q188.38 321.178 185.301 316.595 Q182.246 311.989 182.246 303.262 Q182.246 294.512 185.301 289.928 Q188.38 285.322 194.19 285.322 Z" fill="#000000" fill-rule="nonzero" fill-opacity="1" /><path clip-path="url(#clip400)" d="M155.834 107.158 L163.473 107.158 L163.473 80.7927 L155.163 82.4593 L155.163 78.2001 L163.427 76.5334 L168.102 76.5334 L168.102 107.158 L175.741 107.158 L175.741 111.093 L155.834 111.093 L155.834 107.158 Z" fill="#000000" fill-rule="nonzero" fill-opacity="1" /><path clip-path="url(#clip400)" d="M185.232 76.5334 L203.588 76.5334 L203.588 80.4686 L189.514 80.4686 L189.514 88.9408 Q190.533 88.5936 191.551 88.4315 Q192.57 88.2463 193.588 88.2463 Q199.375 88.2463 202.755 91.4176 Q206.135 94.5889 206.135 100.006 Q206.135 105.584 202.662 108.686 Q199.19 111.765 192.871 111.765 Q190.695 111.765 188.426 111.394 Q186.181 111.024 183.774 110.283 L183.774 105.584 Q185.857 106.718 188.079 107.274 Q190.301 107.83 192.778 107.83 Q196.783 107.83 199.121 105.723 Q201.459 103.617 201.459 100.006 Q201.459 96.3944 199.121 94.288 Q196.783 92.1815 192.778 92.1815 Q190.903 92.1815 189.028 92.5982 Q187.176 93.0148 185.232 93.8945 L185.232 76.5334 Z" fill="#000000" fill-rule="nonzero" fill-opacity="1" /><path clip-path="url(#clip400)" d="M14.479 723.865 L19.3487 723.865 L19.3487 729.467 Q19.3487 732.618 20.6219 733.859 Q21.895 735.069 25.2052 735.069 L28.3562 735.069 L28.3562 725.425 L32.9077 725.425 L32.9077 735.069 L64.0042 735.069 L64.0042 740.957 L32.9077 740.957 L32.9077 746.559 L28.3562 746.559 L28.3562 740.957 L25.8736 740.957 Q19.9216 740.957 17.2162 738.188 Q14.479 735.419 14.479 729.403 L14.479 723.865 Z" fill="#000000" fill-rule="nonzero" fill-opacity="1" /><polyline clip-path="url(#clip402)" style="stroke:#009af9; stroke-linecap:round; stroke-linejoin:round; stroke-width:4; stroke-opacity:1; fill:none" points="301.869,916.951 311.875,829.095 321.881,760.723 331.887,694.691 341.892,615.519 351.898,510.098 361.904,373.338 371.91,221.431 381.916,106.338 391.921,109.426 401.927,292.957 411.933,633.37 421.939,1010.05 431.944,1282.64 441.95,1384.24 451.956,1341.27 461.962,1224.22 471.968,1094.18 481.973,982.72 491.979,897.555 501.985,834.508 511.991,785.853 521.997,743.907 532.002,701.88 542.008,653.79 552.014,594.592 562.02,521.259 572.026,435.195 582.031,345.587 592.037,271.747 602.043,241.051 612.049,279.869 622.054,399.58 632.06,585.809 642.066,799.978 652.072,994.451 662.078,1132.16 672.083,1198.62 682.089,1201.25 692.095,1159.9 702.101,1096.31 712.107,1027.47 722.112,963.595 732.118,909.172 742.124,864.937 752.13,829.7 762.136,801.547 772.141,778.496 782.147,758.765 792.153,740.85 802.159,723.504 812.164,705.702 822.17,686.624 832.176,665.661 842.182,642.465 852.188,617.024 862.193,589.751 872.199,561.563 882.205,533.908 892.211,508.718 902.217,488.242 912.222,474.785 922.228,470.371 932.234,476.395 942.24,493.352 952.246,520.696 962.251,556.875 972.257,599.541 982.263,645.868 992.269,692.928 1002.27,738.031 1012.28,778.984 1022.29,814.238 1032.29,842.92 1042.3,864.77 1052.3,880.033 1062.31,889.308 1072.32,893.409 1082.32,893.247 1092.33,889.728 1102.33,883.697 1112.34,875.891 1122.34,866.931 1132.35,857.315 1142.36,847.427 1152.36,837.554 1162.37,827.895 1172.37,818.585 1182.38,809.704 1192.38,801.29 1202.39,793.354 1212.4,785.881 1222.4,778.843 1232.41,772.201 1242.41,765.908 1252.42,759.915 1262.43,754.169 1272.43,748.615 1282.44,743.199 1292.44,737.865 1302.45,732.559 1312.45,727.225 1322.46,721.809 1332.47,716.255 1342.47,710.509 1352.48,704.516 1362.48,698.223 1372.49,691.581 1382.49,684.543 1392.5,677.07 1402.51,669.134 1412.51,660.72 1422.52,651.839 1432.52,642.529 1442.53,632.87 1452.54,622.996 1462.54,613.109 1472.55,603.493 1482.55,594.533 1492.56,586.727 1502.56,580.696 1512.57,577.177 1522.58,577.015 1532.58,581.116 1542.59,590.391 1552.59,605.654 1562.6,627.504 1572.6,656.186 1582.61,691.44 1592.62,732.393 1602.62,777.496 1612.63,824.556 1622.63,870.883 1632.64,913.549 1642.65,949.728 1652.65,977.071 1662.66,994.029 1672.66,1000.05 1682.67,995.639 1692.67,982.182 1702.68,961.706 1712.69,936.516 1722.69,908.861 1732.7,880.673 1742.7,853.4 1752.71,827.959 1762.71,804.763 1772.72,783.8 1782.73,764.722 1792.73,746.92 1802.74,729.574 1812.74,711.659 1822.75,691.928 1832.76,668.876 1842.76,640.724 1852.77,605.486 1862.77,561.252 1872.78,506.829 1882.78,442.957 1892.79,374.114 1902.8,310.527 1912.8,269.174 1922.81,271.802 1932.81,338.266 1942.82,475.973 1952.82,670.445 1962.83,884.614 1972.84,1070.84 1982.84,1190.55 1992.85,1229.37 2002.85,1198.68 2012.86,1124.84 2022.87,1035.23 2032.87,949.164 2042.88,875.832 2052.88,816.634 2062.89,768.544 2072.89,726.517 2082.9,684.571 2092.91,635.916 2102.91,572.869 2112.92,487.704 2122.92,376.248 2132.93,246.203 2142.93,129.151 2152.94,86.1857 2162.95,187.781 2172.95,460.372 2182.96,837.054 2192.96,1177.47 2202.97,1361 2212.98,1364.09 2222.98,1248.99 2232.99,1097.09 2242.99,960.326 2253,854.905 2263,775.733 2273.01,709.701 2283.02,641.329 2293.02,553.473 "/>
<polyline clip-path="url(#clip402)" style="stroke:#e26f46; stroke-linecap:round; stroke-linejoin:round; stroke-width:4; stroke-opacity:1; fill:none" points="301.869,1016.59 311.875,846.62 321.881,690.812 331.887,558.549 341.892,457.652 351.898,393.77 361.904,369.909 371.91,386.135 381.916,439.51 391.921,524.257 401.927,632.166 411.933,753.208 421.939,876.324 431.944,990.317 441.95,1084.78 451.956,1150.98 461.962,1182.62 471.968,1176.37 481.973,1132.22 491.979,1053.46 501.985,946.446 511.991,820.006 521.997,684.701 532.002,551.875 542.008,432.652 552.014,336.943 562.02,272.577 572.026,244.622 582.031,254.969 592.037,302.218 602.043,381.869 612.049,486.805 622.054,608.004 632.06,735.42 642.066,858.931 652.072,969.261 662.078,1058.79 672.083,1122.18 682.089,1156.69 692.095,1162.33 702.101,1141.6 712.107,1099.11 722.112,1040.9 732.118,973.737 742.124,904.352 752.13,838.72 762.136,781.505 772.141,735.679 782.147,702.366 792.153,680.922 802.159,669.214 812.164,664.063 822.17,661.786 832.176,658.767 842.182,651.976 852.188,639.389 862.193,620.246 872.199,595.135 882.205,565.882 892.211,535.292 902.217,506.758 912.222,483.808 922.228,469.643 932.234,466.723 942.24,476.46 952.246,499.044 962.251,533.424 972.257,577.438 982.263,628.069 992.269,681.792 1002.27,734.964 1012.28,784.21 1022.29,826.747 1032.29,860.631 1042.3,884.877 1052.3,899.467 1062.31,905.238 1072.32,903.688 1082.32,896.72 1092.33,886.359 1102.33,874.506 1112.34,862.718 1122.34,852.079 1132.35,843.148 1142.36,835.984 1152.36,830.248 1162.37,825.342 1172.37,820.577 1182.38,815.324 1192.38,809.137 1202.39,801.831 1212.4,793.495 1222.4,784.458 1232.41,775.208 1242.41,766.285 1252.42,758.169 1262.43,751.186 1272.43,745.444 1282.44,740.813 1292.44,736.949 1302.45,733.364 1312.45,729.515 1322.46,724.913 1332.47,719.21 1342.47,712.27 1352.48,704.194 1362.48,695.304 1372.49,686.076 1382.49,677.045 1392.5,668.699 1402.51,661.368 1412.51,655.144 1422.52,649.846 1432.52,645.037 1442.53,640.092 1452.54,634.328 1462.54,627.152 1472.55,618.225 1482.55,607.608 1492.56,595.856 1502.56,584.049 1512.57,573.738 1522.58,566.815 1532.58,565.302 1542.59,571.094 1552.59,585.685 1562.6,609.913 1572.6,643.762 1582.61,686.25 1592.62,735.44 1602.62,788.557 1612.63,842.233 1622.63,892.833 1632.64,936.836 1642.65,971.23 1652.65,993.848 1662.66,1003.64 1672.66,1000.78 1682.67,986.685 1692.67,963.796 1702.68,935.307 1712.69,904.739 1722.69,875.481 1732.7,850.336 1742.7,831.136 1752.71,818.473 1762.71,811.598 1772.72,808.498 1782.73,806.157 1792.73,800.966 1802.74,789.252 1812.74,767.837 1822.75,734.588 1832.76,688.852 1842.76,631.744 1852.77,566.221 1862.77,496.93 1872.78,429.836 1882.78,371.651 1892.79,329.137 1902.8,308.344 1912.8,313.872 1922.81,348.245 1932.81,411.476 1942.82,500.864 1952.82,611.082 1962.83,734.529 1972.84,861.945 1982.84,983.213 1992.85,1088.29 2002.85,1168.13 2012.86,1215.6 2022.87,1226.18 2032.87,1198.43 2042.88,1134.2 2052.88,1038.55 2062.89,919.27 2072.89,786.276 2082.9,650.693 2092.91,523.892 2102.91,416.469 2112.92,337.313 2122.92,292.823 2132.93,286.359 2142.93,317.954 2152.94,384.336 2162.95,479.219 2172.95,593.865 2182.96,717.831 2192.96,839.846 2202.97,948.747 2212.98,1034.37 2222.98,1088.35 2232.99,1104.72 2242.99,1080.37 2253,1015.19 2263,912.016 2273.01,776.379 2283.02,616.006 2293.02,440.231 "/>
<path clip-path="url(#clip400)" d="M312.489 1377.32 L1333.48 1377.32 L1333.48 1221.8 L312.489 1221.8  Z" fill="#ffffff" fill-rule="evenodd" fill-opacity="1"/>
<polyline clip-path="url(#clip400)" style="stroke:#000000; stroke-linecap:round; stroke-linejoin:round; stroke-width:4; stroke-opacity:1; fill:none" points="312.489,1377.32 1333.48,1377.32 1333.48,1221.8 312.489,1221.8 312.489,1377.32 "/>
<polyline clip-path="url(#clip400)" style="stroke:#009af9; stroke-linecap:round; stroke-linejoin:round; stroke-width:4; stroke-opacity:1; fill:none" points="335.94,1273.64 476.648,1273.64 "/>
<path clip-path="url(#clip400)" d="M504.775 1260.2 L504.775 1287.07 L510.424 1287.07 Q517.576 1287.07 520.886 1283.83 Q524.22 1280.59 524.22 1273.6 Q524.22 1266.66 520.886 1263.44 Q517.576 1260.2 510.424 1260.2 L504.775 1260.2 M500.099 1256.36 L509.706 1256.36 Q519.752 1256.36 524.451 1260.55 Q529.15 1264.71 529.15 1273.6 Q529.15 1282.54 524.428 1286.73 Q519.706 1290.92 509.706 1290.92 L500.099 1290.92 L500.099 1256.36 Z" fill="#000000" fill-rule="nonzero" fill-opacity="1" /><path clip-path="url(#clip400)" d="M558.595 1276.89 L558.595 1278.97 L539.011 1278.97 Q539.289 1283.37 541.65 1285.68 Q544.034 1287.98 548.271 1287.98 Q550.724 1287.98 553.016 1287.37 Q555.331 1286.77 557.599 1285.57 L557.599 1289.6 Q555.308 1290.57 552.9 1291.08 Q550.493 1291.59 548.016 1291.59 Q541.812 1291.59 538.178 1287.98 Q534.567 1284.36 534.567 1278.21 Q534.567 1271.84 537.993 1268.11 Q541.442 1264.36 547.275 1264.36 Q552.507 1264.36 555.539 1267.74 Q558.595 1271.1 558.595 1276.89 M554.335 1275.64 Q554.289 1272.14 552.368 1270.06 Q550.47 1267.98 547.321 1267.98 Q543.757 1267.98 541.604 1269.99 Q539.474 1272 539.15 1275.66 L554.335 1275.64 Z" fill="#000000" fill-rule="nonzero" fill-opacity="1" /><path clip-path="url(#clip400)" d="M580.608 1268.97 Q579.891 1268.55 579.034 1268.37 Q578.201 1268.16 577.182 1268.16 Q573.571 1268.16 571.627 1270.52 Q569.706 1272.86 569.706 1277.26 L569.706 1290.92 L565.423 1290.92 L565.423 1264.99 L569.706 1264.99 L569.706 1269.02 Q571.048 1266.66 573.201 1265.52 Q575.354 1264.36 578.432 1264.36 Q578.872 1264.36 579.405 1264.43 Q579.937 1264.48 580.585 1264.6 L580.608 1268.97 Z" fill="#000000" fill-rule="nonzero" fill-opacity="1" /><path clip-path="url(#clip400)" d="M585.076 1264.99 L589.335 1264.99 L589.335 1290.92 L585.076 1290.92 L585.076 1264.99 M585.076 1254.9 L589.335 1254.9 L589.335 1260.29 L585.076 1260.29 L585.076 1254.9 Z" fill="#000000" fill-rule="nonzero" fill-opacity="1" /><path clip-path="url(#clip400)" d="M595.192 1264.99 L599.705 1264.99 L607.807 1286.75 L615.909 1264.99 L620.423 1264.99 L610.701 1290.92 L604.914 1290.92 L595.192 1264.99 Z" fill="#000000" fill-rule="nonzero" fill-opacity="1" /><path clip-path="url(#clip400)" d="M638.085 1277.88 Q632.923 1277.88 630.932 1279.06 Q628.941 1280.24 628.941 1283.09 Q628.941 1285.36 630.423 1286.7 Q631.927 1288.02 634.497 1288.02 Q638.039 1288.02 640.168 1285.52 Q642.321 1283 642.321 1278.83 L642.321 1277.88 L638.085 1277.88 M646.58 1276.12 L646.58 1290.92 L642.321 1290.92 L642.321 1286.98 Q640.863 1289.34 638.687 1290.48 Q636.511 1291.59 633.363 1291.59 Q629.381 1291.59 627.02 1289.36 Q624.682 1287.12 624.682 1283.37 Q624.682 1278.99 627.599 1276.77 Q630.539 1274.55 636.349 1274.55 L642.321 1274.55 L642.321 1274.13 Q642.321 1271.19 640.377 1269.6 Q638.455 1267.98 634.96 1267.98 Q632.738 1267.98 630.631 1268.51 Q628.525 1269.04 626.58 1270.11 L626.58 1266.17 Q628.918 1265.27 631.117 1264.83 Q633.316 1264.36 635.4 1264.36 Q641.025 1264.36 643.802 1267.28 Q646.58 1270.2 646.58 1276.12 Z" fill="#000000" fill-rule="nonzero" fill-opacity="1" /><path clip-path="url(#clip400)" d="M659.566 1257.63 L659.566 1264.99 L668.339 1264.99 L668.339 1268.3 L659.566 1268.3 L659.566 1282.37 Q659.566 1285.54 660.423 1286.45 Q661.302 1287.35 663.964 1287.35 L668.339 1287.35 L668.339 1290.92 L663.964 1290.92 Q659.034 1290.92 657.159 1289.09 Q655.284 1287.23 655.284 1282.37 L655.284 1268.3 L652.159 1268.3 L652.159 1264.99 L655.284 1264.99 L655.284 1257.63 L659.566 1257.63 Z" fill="#000000" fill-rule="nonzero" fill-opacity="1" /><path clip-path="url(#clip400)" d="M673.941 1264.99 L678.2 1264.99 L678.2 1290.92 L673.941 1290.92 L673.941 1264.99 M673.941 1254.9 L678.2 1254.9 L678.2 1260.29 L673.941 1260.29 L673.941 1254.9 Z" fill="#000000" fill-rule="nonzero" fill-opacity="1" /><path clip-path="url(#clip400)" d="M684.057 1264.99 L688.571 1264.99 L696.673 1286.75 L704.774 1264.99 L709.288 1264.99 L699.566 1290.92 L693.779 1290.92 L684.057 1264.99 Z" fill="#000000" fill-rule="nonzero" fill-opacity="1" /><path clip-path="url(#clip400)" d="M737.344 1276.89 L737.344 1278.97 L717.76 1278.97 Q718.038 1283.37 720.399 1285.68 Q722.783 1287.98 727.02 1287.98 Q729.473 1287.98 731.765 1287.37 Q734.08 1286.77 736.348 1285.57 L736.348 1289.6 Q734.057 1290.57 731.649 1291.08 Q729.242 1291.59 726.765 1291.59 Q720.561 1291.59 716.927 1287.98 Q713.316 1284.36 713.316 1278.21 Q713.316 1271.84 716.742 1268.11 Q720.191 1264.36 726.024 1264.36 Q731.256 1264.36 734.288 1267.74 Q737.344 1271.1 737.344 1276.89 M733.084 1275.64 Q733.038 1272.14 731.117 1270.06 Q729.219 1267.98 726.07 1267.98 Q722.506 1267.98 720.353 1269.99 Q718.223 1272 717.899 1275.66 L733.084 1275.64 Z" fill="#000000" fill-rule="nonzero" fill-opacity="1" /><path clip-path="url(#clip400)" d="M769.45 1267.98 Q766.024 1267.98 764.033 1270.66 Q762.043 1273.32 762.043 1277.98 Q762.043 1282.63 764.01 1285.31 Q766.001 1287.98 769.45 1287.98 Q772.853 1287.98 774.843 1285.29 Q776.834 1282.61 776.834 1277.98 Q776.834 1273.37 774.843 1270.68 Q772.853 1267.98 769.45 1267.98 M769.45 1264.36 Q775.005 1264.36 778.177 1267.98 Q781.348 1271.59 781.348 1277.98 Q781.348 1284.34 778.177 1287.98 Q775.005 1291.59 769.45 1291.59 Q763.871 1291.59 760.7 1287.98 Q757.552 1284.34 757.552 1277.98 Q757.552 1271.59 760.7 1267.98 Q763.871 1264.36 769.45 1264.36 Z" fill="#000000" fill-rule="nonzero" fill-opacity="1" /><path clip-path="url(#clip400)" d="M801.533 1254.9 L801.533 1258.44 L797.459 1258.44 Q795.167 1258.44 794.265 1259.36 Q793.385 1260.29 793.385 1262.7 L793.385 1264.99 L800.399 1264.99 L800.399 1268.3 L793.385 1268.3 L793.385 1290.92 L789.103 1290.92 L789.103 1268.3 L785.029 1268.3 L785.029 1264.99 L789.103 1264.99 L789.103 1263.18 Q789.103 1258.86 791.116 1256.89 Q793.13 1254.9 797.505 1254.9 L801.533 1254.9 Z" fill="#000000" fill-rule="nonzero" fill-opacity="1" /><path clip-path="url(#clip400)" d="M830.213 1267.98 Q826.788 1267.98 824.797 1270.66 Q822.806 1273.32 822.806 1277.98 Q822.806 1282.63 824.774 1285.31 Q826.764 1287.98 830.213 1287.98 Q833.616 1287.98 835.607 1285.29 Q837.598 1282.61 837.598 1277.98 Q837.598 1273.37 835.607 1270.68 Q833.616 1267.98 830.213 1267.98 M830.213 1264.36 Q835.769 1264.36 838.94 1267.98 Q842.112 1271.59 842.112 1277.98 Q842.112 1284.34 838.94 1287.98 Q835.769 1291.59 830.213 1291.59 Q824.635 1291.59 821.464 1287.98 Q818.315 1284.34 818.315 1277.98 Q818.315 1271.59 821.464 1267.98 Q824.635 1264.36 830.213 1264.36 Z" fill="#000000" fill-rule="nonzero" fill-opacity="1" /><path clip-path="url(#clip400)" d="M864.195 1268.97 Q863.477 1268.55 862.621 1268.37 Q861.787 1268.16 860.769 1268.16 Q857.158 1268.16 855.213 1270.52 Q853.292 1272.86 853.292 1277.26 L853.292 1290.92 L849.01 1290.92 L849.01 1264.99 L853.292 1264.99 L853.292 1269.02 Q854.635 1266.66 856.787 1265.52 Q858.94 1264.36 862.019 1264.36 Q862.459 1264.36 862.991 1264.43 Q863.523 1264.48 864.172 1264.6 L864.195 1268.97 Z" fill="#000000" fill-rule="nonzero" fill-opacity="1" /><path clip-path="url(#clip400)" d="M868.662 1264.99 L872.922 1264.99 L872.922 1290.92 L868.662 1290.92 L868.662 1264.99 M868.662 1254.9 L872.922 1254.9 L872.922 1260.29 L868.662 1260.29 L868.662 1254.9 Z" fill="#000000" fill-rule="nonzero" fill-opacity="1" /><path clip-path="url(#clip400)" d="M898.894 1277.65 Q898.894 1273.02 896.972 1270.48 Q895.074 1267.93 891.625 1267.93 Q888.199 1267.93 886.278 1270.48 Q884.38 1273.02 884.38 1277.65 Q884.38 1282.26 886.278 1284.8 Q888.199 1287.35 891.625 1287.35 Q895.074 1287.35 896.972 1284.8 Q898.894 1282.26 898.894 1277.65 M903.153 1287.7 Q903.153 1294.32 900.213 1297.54 Q897.273 1300.78 891.208 1300.78 Q888.963 1300.78 886.972 1300.43 Q884.982 1300.11 883.107 1299.41 L883.107 1295.27 Q884.982 1296.29 886.81 1296.77 Q888.639 1297.26 890.537 1297.26 Q894.727 1297.26 896.81 1295.06 Q898.894 1292.88 898.894 1288.46 L898.894 1286.36 Q897.574 1288.65 895.514 1289.78 Q893.454 1290.92 890.584 1290.92 Q885.815 1290.92 882.898 1287.28 Q879.982 1283.65 879.982 1277.65 Q879.982 1271.63 882.898 1268 Q885.815 1264.36 890.584 1264.36 Q893.454 1264.36 895.514 1265.5 Q897.574 1266.63 898.894 1268.92 L898.894 1264.99 L903.153 1264.99 L903.153 1287.7 Z" fill="#000000" fill-rule="nonzero" fill-opacity="1" /><path clip-path="url(#clip400)" d="M911.926 1264.99 L916.185 1264.99 L916.185 1290.92 L911.926 1290.92 L911.926 1264.99 M911.926 1254.9 L916.185 1254.9 L916.185 1260.29 L911.926 1260.29 L911.926 1254.9 Z" fill="#000000" fill-rule="nonzero" fill-opacity="1" /><path clip-path="url(#clip400)" d="M946.648 1275.27 L946.648 1290.92 L942.389 1290.92 L942.389 1275.41 Q942.389 1271.73 940.954 1269.9 Q939.518 1268.07 936.648 1268.07 Q933.199 1268.07 931.208 1270.27 Q929.218 1272.47 929.218 1276.26 L929.218 1290.92 L924.935 1290.92 L924.935 1264.99 L929.218 1264.99 L929.218 1269.02 Q930.745 1266.68 932.805 1265.52 Q934.889 1264.36 937.597 1264.36 Q942.065 1264.36 944.356 1267.14 Q946.648 1269.9 946.648 1275.27 Z" fill="#000000" fill-rule="nonzero" fill-opacity="1" /><path clip-path="url(#clip400)" d="M966.926 1277.88 Q961.764 1277.88 959.773 1279.06 Q957.782 1280.24 957.782 1283.09 Q957.782 1285.36 959.264 1286.7 Q960.768 1288.02 963.338 1288.02 Q966.879 1288.02 969.009 1285.52 Q971.162 1283 971.162 1278.83 L971.162 1277.88 L966.926 1277.88 M975.421 1276.12 L975.421 1290.92 L971.162 1290.92 L971.162 1286.98 Q969.703 1289.34 967.528 1290.48 Q965.352 1291.59 962.203 1291.59 Q958.222 1291.59 955.861 1289.36 Q953.523 1287.12 953.523 1283.37 Q953.523 1278.99 956.44 1276.77 Q959.379 1274.55 965.19 1274.55 L971.162 1274.55 L971.162 1274.13 Q971.162 1271.19 969.217 1269.6 Q967.296 1267.98 963.801 1267.98 Q961.578 1267.98 959.472 1268.51 Q957.366 1269.04 955.421 1270.11 L955.421 1266.17 Q957.759 1265.27 959.958 1264.83 Q962.157 1264.36 964.241 1264.36 Q969.865 1264.36 972.643 1267.28 Q975.421 1270.2 975.421 1276.12 Z" fill="#000000" fill-rule="nonzero" fill-opacity="1" /><path clip-path="url(#clip400)" d="M984.194 1254.9 L988.453 1254.9 L988.453 1290.92 L984.194 1290.92 L984.194 1254.9 Z" fill="#000000" fill-rule="nonzero" fill-opacity="1" /><path clip-path="url(#clip400)" d="M1025.56 1254.9 L1025.56 1258.44 L1021.49 1258.44 Q1019.19 1258.44 1018.29 1259.36 Q1017.41 1260.29 1017.41 1262.7 L1017.41 1264.99 L1024.43 1264.99 L1024.43 1268.3 L1017.41 1268.3 L1017.41 1290.92 L1013.13 1290.92 L1013.13 1268.3 L1009.06 1268.3 L1009.06 1264.99 L1013.13 1264.99 L1013.13 1263.18 Q1013.13 1258.86 1015.14 1256.89 Q1017.16 1254.9 1021.53 1254.9 L1025.56 1254.9 Z" fill="#000000" fill-rule="nonzero" fill-opacity="1" /><path clip-path="url(#clip400)" d="M1028.68 1280.68 L1028.68 1264.99 L1032.94 1264.99 L1032.94 1280.52 Q1032.94 1284.2 1034.38 1286.05 Q1035.81 1287.88 1038.68 1287.88 Q1042.13 1287.88 1044.12 1285.68 Q1046.14 1283.48 1046.14 1279.69 L1046.14 1264.99 L1050.4 1264.99 L1050.4 1290.92 L1046.14 1290.92 L1046.14 1286.93 Q1044.59 1289.29 1042.53 1290.45 Q1040.49 1291.59 1037.78 1291.59 Q1033.31 1291.59 1031 1288.81 Q1028.68 1286.03 1028.68 1280.68 M1039.4 1264.36 L1039.4 1264.36 Z" fill="#000000" fill-rule="nonzero" fill-opacity="1" /><path clip-path="url(#clip400)" d="M1080.72 1275.27 L1080.72 1290.92 L1076.46 1290.92 L1076.46 1275.41 Q1076.46 1271.73 1075.03 1269.9 Q1073.59 1268.07 1070.72 1268.07 Q1067.27 1268.07 1065.28 1270.27 Q1063.29 1272.47 1063.29 1276.26 L1063.29 1290.92 L1059.01 1290.92 L1059.01 1264.99 L1063.29 1264.99 L1063.29 1269.02 Q1064.82 1266.68 1066.88 1265.52 Q1068.96 1264.36 1071.67 1264.36 Q1076.14 1264.36 1078.43 1267.14 Q1080.72 1269.9 1080.72 1275.27 Z" fill="#000000" fill-rule="nonzero" fill-opacity="1" /><path clip-path="url(#clip400)" d="M1107.87 1265.98 L1107.87 1269.97 Q1106.07 1268.97 1104.24 1268.48 Q1102.43 1267.98 1100.58 1267.98 Q1096.44 1267.98 1094.15 1270.61 Q1091.86 1273.23 1091.86 1277.98 Q1091.86 1282.72 1094.15 1285.36 Q1096.44 1287.98 1100.58 1287.98 Q1102.43 1287.98 1104.24 1287.49 Q1106.07 1286.98 1107.87 1285.98 L1107.87 1289.92 Q1106.09 1290.75 1104.17 1291.17 Q1102.27 1291.59 1100.12 1291.59 Q1094.26 1291.59 1090.81 1287.91 Q1087.36 1284.23 1087.36 1277.98 Q1087.36 1271.63 1090.84 1268 Q1094.33 1264.36 1100.4 1264.36 Q1102.36 1264.36 1104.24 1264.78 Q1106.11 1265.17 1107.87 1265.98 Z" fill="#000000" fill-rule="nonzero" fill-opacity="1" /><path clip-path="url(#clip400)" d="M1119.49 1257.63 L1119.49 1264.99 L1128.27 1264.99 L1128.27 1268.3 L1119.49 1268.3 L1119.49 1282.37 Q1119.49 1285.54 1120.35 1286.45 Q1121.23 1287.35 1123.89 1287.35 L1128.27 1287.35 L1128.27 1290.92 L1123.89 1290.92 Q1118.96 1290.92 1117.09 1289.09 Q1115.21 1287.23 1115.21 1282.37 L1115.21 1268.3 L1112.09 1268.3 L1112.09 1264.99 L1115.21 1264.99 L1115.21 1257.63 L1119.49 1257.63 Z" fill="#000000" fill-rule="nonzero" fill-opacity="1" /><path clip-path="url(#clip400)" d="M1133.87 1264.99 L1138.13 1264.99 L1138.13 1290.92 L1133.87 1290.92 L1133.87 1264.99 M1133.87 1254.9 L1138.13 1254.9 L1138.13 1260.29 L1133.87 1260.29 L1133.87 1254.9 Z" fill="#000000" fill-rule="nonzero" fill-opacity="1" /><path clip-path="url(#clip400)" d="M1157.09 1267.98 Q1153.66 1267.98 1151.67 1270.66 Q1149.68 1273.32 1149.68 1277.98 Q1149.68 1282.63 1151.65 1285.31 Q1153.64 1287.98 1157.09 1287.98 Q1160.49 1287.98 1162.48 1285.29 Q1164.47 1282.61 1164.47 1277.98 Q1164.47 1273.37 1162.48 1270.68 Q1160.49 1267.98 1157.09 1267.98 M1157.09 1264.36 Q1162.64 1264.36 1165.81 1267.98 Q1168.98 1271.59 1168.98 1277.98 Q1168.98 1284.34 1165.81 1287.98 Q1162.64 1291.59 1157.09 1291.59 Q1151.51 1291.59 1148.34 1287.98 Q1145.19 1284.34 1145.19 1277.98 Q1145.19 1271.59 1148.34 1267.98 Q1151.51 1264.36 1157.09 1264.36 Z" fill="#000000" fill-rule="nonzero" fill-opacity="1" /><path clip-path="url(#clip400)" d="M1197.6 1275.27 L1197.6 1290.92 L1193.34 1290.92 L1193.34 1275.41 Q1193.34 1271.73 1191.9 1269.9 Q1190.47 1268.07 1187.6 1268.07 Q1184.15 1268.07 1182.16 1270.27 Q1180.17 1272.47 1180.17 1276.26 L1180.17 1290.92 L1175.88 1290.92 L1175.88 1264.99 L1180.17 1264.99 L1180.17 1269.02 Q1181.69 1266.68 1183.75 1265.52 Q1185.84 1264.36 1188.54 1264.36 Q1193.01 1264.36 1195.3 1267.14 Q1197.6 1269.9 1197.6 1275.27 Z" fill="#000000" fill-rule="nonzero" fill-opacity="1" /><polyline clip-path="url(#clip400)" style="stroke:#e26f46; stroke-linecap:round; stroke-linejoin:round; stroke-width:4; stroke-opacity:1; fill:none" points="335.94,1325.48 476.648,1325.48 "/>
<path clip-path="url(#clip400)" d="M504.775 1312.04 L504.775 1338.91 L510.424 1338.91 Q517.576 1338.91 520.886 1335.67 Q524.22 1332.43 524.22 1325.44 Q524.22 1318.5 520.886 1315.28 Q517.576 1312.04 510.424 1312.04 L504.775 1312.04 M500.099 1308.2 L509.706 1308.2 Q519.752 1308.2 524.451 1312.39 Q529.15 1316.55 529.15 1325.44 Q529.15 1334.38 524.428 1338.57 Q519.706 1342.76 509.706 1342.76 L500.099 1342.76 L500.099 1308.2 Z" fill="#000000" fill-rule="nonzero" fill-opacity="1" /><path clip-path="url(#clip400)" d="M558.595 1328.73 L558.595 1330.81 L539.011 1330.81 Q539.289 1335.21 541.65 1337.52 Q544.034 1339.82 548.271 1339.82 Q550.724 1339.82 553.016 1339.21 Q555.331 1338.61 557.599 1337.41 L557.599 1341.44 Q555.308 1342.41 552.9 1342.92 Q550.493 1343.43 548.016 1343.43 Q541.812 1343.43 538.178 1339.82 Q534.567 1336.2 534.567 1330.05 Q534.567 1323.68 537.993 1319.95 Q541.442 1316.2 547.275 1316.2 Q552.507 1316.2 555.539 1319.58 Q558.595 1322.94 558.595 1328.73 M554.335 1327.48 Q554.289 1323.98 552.368 1321.9 Q550.47 1319.82 547.321 1319.82 Q543.757 1319.82 541.604 1321.83 Q539.474 1323.84 539.15 1327.5 L554.335 1327.48 Z" fill="#000000" fill-rule="nonzero" fill-opacity="1" /><path clip-path="url(#clip400)" d="M580.608 1320.81 Q579.891 1320.39 579.034 1320.21 Q578.201 1320 577.182 1320 Q573.571 1320 571.627 1322.36 Q569.706 1324.7 569.706 1329.1 L569.706 1342.76 L565.423 1342.76 L565.423 1316.83 L569.706 1316.83 L569.706 1320.86 Q571.048 1318.5 573.201 1317.36 Q575.354 1316.2 578.432 1316.2 Q578.872 1316.2 579.405 1316.27 Q579.937 1316.32 580.585 1316.44 L580.608 1320.81 Z" fill="#000000" fill-rule="nonzero" fill-opacity="1" /><path clip-path="url(#clip400)" d="M585.076 1316.83 L589.335 1316.83 L589.335 1342.76 L585.076 1342.76 L585.076 1316.83 M585.076 1306.74 L589.335 1306.74 L589.335 1312.13 L585.076 1312.13 L585.076 1306.74 Z" fill="#000000" fill-rule="nonzero" fill-opacity="1" /><path clip-path="url(#clip400)" d="M595.192 1316.83 L599.705 1316.83 L607.807 1338.59 L615.909 1316.83 L620.423 1316.83 L610.701 1342.76 L604.914 1342.76 L595.192 1316.83 Z" fill="#000000" fill-rule="nonzero" fill-opacity="1" /><path clip-path="url(#clip400)" d="M638.085 1329.72 Q632.923 1329.72 630.932 1330.9 Q628.941 1332.08 628.941 1334.93 Q628.941 1337.2 630.423 1338.54 Q631.927 1339.86 634.497 1339.86 Q638.039 1339.86 640.168 1337.36 Q642.321 1334.84 642.321 1330.67 L642.321 1329.72 L638.085 1329.72 M646.58 1327.96 L646.58 1342.76 L642.321 1342.76 L642.321 1338.82 Q640.863 1341.18 638.687 1342.32 Q636.511 1343.43 633.363 1343.43 Q629.381 1343.43 627.02 1341.2 Q624.682 1338.96 624.682 1335.21 Q624.682 1330.83 627.599 1328.61 Q630.539 1326.39 636.349 1326.39 L642.321 1326.39 L642.321 1325.97 Q642.321 1323.03 640.377 1321.44 Q638.455 1319.82 634.96 1319.82 Q632.738 1319.82 630.631 1320.35 Q628.525 1320.88 626.58 1321.95 L626.58 1318.01 Q628.918 1317.11 631.117 1316.67 Q633.316 1316.2 635.4 1316.2 Q641.025 1316.2 643.802 1319.12 Q646.58 1322.04 646.58 1327.96 Z" fill="#000000" fill-rule="nonzero" fill-opacity="1" /><path clip-path="url(#clip400)" d="M659.566 1309.47 L659.566 1316.83 L668.339 1316.83 L668.339 1320.14 L659.566 1320.14 L659.566 1334.21 Q659.566 1337.38 660.423 1338.29 Q661.302 1339.19 663.964 1339.19 L668.339 1339.19 L668.339 1342.76 L663.964 1342.76 Q659.034 1342.76 657.159 1340.93 Q655.284 1339.07 655.284 1334.21 L655.284 1320.14 L652.159 1320.14 L652.159 1316.83 L655.284 1316.83 L655.284 1309.47 L659.566 1309.47 Z" fill="#000000" fill-rule="nonzero" fill-opacity="1" /><path clip-path="url(#clip400)" d="M673.941 1316.83 L678.2 1316.83 L678.2 1342.76 L673.941 1342.76 L673.941 1316.83 M673.941 1306.74 L678.2 1306.74 L678.2 1312.13 L673.941 1312.13 L673.941 1306.74 Z" fill="#000000" fill-rule="nonzero" fill-opacity="1" /><path clip-path="url(#clip400)" d="M684.057 1316.83 L688.571 1316.83 L696.673 1338.59 L704.774 1316.83 L709.288 1316.83 L699.566 1342.76 L693.779 1342.76 L684.057 1316.83 Z" fill="#000000" fill-rule="nonzero" fill-opacity="1" /><path clip-path="url(#clip400)" d="M737.344 1328.73 L737.344 1330.81 L717.76 1330.81 Q718.038 1335.21 720.399 1337.52 Q722.783 1339.82 727.02 1339.82 Q729.473 1339.82 731.765 1339.21 Q734.08 1338.61 736.348 1337.41 L736.348 1341.44 Q734.057 1342.41 731.649 1342.92 Q729.242 1343.43 726.765 1343.43 Q720.561 1343.43 716.927 1339.82 Q713.316 1336.2 713.316 1330.05 Q713.316 1323.68 716.742 1319.95 Q720.191 1316.2 726.024 1316.2 Q731.256 1316.2 734.288 1319.58 Q737.344 1322.94 737.344 1328.73 M733.084 1327.48 Q733.038 1323.98 731.117 1321.9 Q729.219 1319.82 726.07 1319.82 Q722.506 1319.82 720.353 1321.83 Q718.223 1323.84 717.899 1327.5 L733.084 1327.48 Z" fill="#000000" fill-rule="nonzero" fill-opacity="1" /><path clip-path="url(#clip400)" d="M769.45 1319.82 Q766.024 1319.82 764.033 1322.5 Q762.043 1325.16 762.043 1329.82 Q762.043 1334.47 764.01 1337.15 Q766.001 1339.82 769.45 1339.82 Q772.853 1339.82 774.843 1337.13 Q776.834 1334.45 776.834 1329.82 Q776.834 1325.21 774.843 1322.52 Q772.853 1319.82 769.45 1319.82 M769.45 1316.2 Q775.005 1316.2 778.177 1319.82 Q781.348 1323.43 781.348 1329.82 Q781.348 1336.18 778.177 1339.82 Q775.005 1343.43 769.45 1343.43 Q763.871 1343.43 760.7 1339.82 Q757.552 1336.18 757.552 1329.82 Q757.552 1323.43 760.7 1319.82 Q763.871 1316.2 769.45 1316.2 Z" fill="#000000" fill-rule="nonzero" fill-opacity="1" /><path clip-path="url(#clip400)" d="M801.533 1306.74 L801.533 1310.28 L797.459 1310.28 Q795.167 1310.28 794.265 1311.2 Q793.385 1312.13 793.385 1314.54 L793.385 1316.83 L800.399 1316.83 L800.399 1320.14 L793.385 1320.14 L793.385 1342.76 L789.103 1342.76 L789.103 1320.14 L785.029 1320.14 L785.029 1316.83 L789.103 1316.83 L789.103 1315.02 Q789.103 1310.7 791.116 1308.73 Q793.13 1306.74 797.505 1306.74 L801.533 1306.74 Z" fill="#000000" fill-rule="nonzero" fill-opacity="1" /><path clip-path="url(#clip400)" d="M820.167 1316.83 L824.426 1316.83 L824.426 1342.76 L820.167 1342.76 L820.167 1316.83 M820.167 1306.74 L824.426 1306.74 L824.426 1312.13 L820.167 1312.13 L820.167 1306.74 Z" fill="#000000" fill-rule="nonzero" fill-opacity="1" /><path clip-path="url(#clip400)" d="M854.889 1327.11 L854.889 1342.76 L850.63 1342.76 L850.63 1327.25 Q850.63 1323.57 849.195 1321.74 Q847.76 1319.91 844.889 1319.91 Q841.44 1319.91 839.45 1322.11 Q837.459 1324.31 837.459 1328.1 L837.459 1342.76 L833.176 1342.76 L833.176 1316.83 L837.459 1316.83 L837.459 1320.86 Q838.987 1318.52 841.047 1317.36 Q843.13 1316.2 845.838 1316.2 Q850.306 1316.2 852.598 1318.98 Q854.889 1321.74 854.889 1327.11 Z" fill="#000000" fill-rule="nonzero" fill-opacity="1" /><path clip-path="url(#clip400)" d="M867.598 1309.47 L867.598 1316.83 L876.371 1316.83 L876.371 1320.14 L867.598 1320.14 L867.598 1334.21 Q867.598 1337.38 868.454 1338.29 Q869.334 1339.19 871.996 1339.19 L876.371 1339.19 L876.371 1342.76 L871.996 1342.76 Q867.065 1342.76 865.19 1340.93 Q863.315 1339.07 863.315 1334.21 L863.315 1320.14 L860.19 1320.14 L860.19 1316.83 L863.315 1316.83 L863.315 1309.47 L867.598 1309.47 Z" fill="#000000" fill-rule="nonzero" fill-opacity="1" /><path clip-path="url(#clip400)" d="M904.148 1328.73 L904.148 1330.81 L884.565 1330.81 Q884.843 1335.21 887.204 1337.52 Q889.588 1339.82 893.824 1339.82 Q896.278 1339.82 898.57 1339.21 Q900.884 1338.61 903.153 1337.41 L903.153 1341.44 Q900.861 1342.41 898.454 1342.92 Q896.046 1343.43 893.57 1343.43 Q887.366 1343.43 883.732 1339.82 Q880.121 1336.2 880.121 1330.05 Q880.121 1323.68 883.547 1319.95 Q886.996 1316.2 892.829 1316.2 Q898.06 1316.2 901.093 1319.58 Q904.148 1322.94 904.148 1328.73 M899.889 1327.48 Q899.843 1323.98 897.921 1321.9 Q896.023 1319.82 892.875 1319.82 Q889.31 1319.82 887.158 1321.83 Q885.028 1323.84 884.704 1327.5 L899.889 1327.48 Z" fill="#000000" fill-rule="nonzero" fill-opacity="1" /><path clip-path="url(#clip400)" d="M926.162 1320.81 Q925.444 1320.39 924.588 1320.21 Q923.755 1320 922.736 1320 Q919.125 1320 917.181 1322.36 Q915.259 1324.7 915.259 1329.1 L915.259 1342.76 L910.977 1342.76 L910.977 1316.83 L915.259 1316.83 L915.259 1320.86 Q916.602 1318.5 918.755 1317.36 Q920.907 1316.2 923.986 1316.2 Q924.426 1316.2 924.958 1316.27 Q925.491 1316.32 926.139 1316.44 L926.162 1320.81 Z" fill="#000000" fill-rule="nonzero" fill-opacity="1" /><path clip-path="url(#clip400)" d="M934.75 1338.87 L934.75 1352.62 L930.468 1352.62 L930.468 1316.83 L934.75 1316.83 L934.75 1320.76 Q936.093 1318.45 938.13 1317.34 Q940.19 1316.2 943.037 1316.2 Q947.759 1316.2 950.699 1319.95 Q953.662 1323.7 953.662 1329.82 Q953.662 1335.93 950.699 1339.68 Q947.759 1343.43 943.037 1343.43 Q940.19 1343.43 938.13 1342.32 Q936.093 1341.18 934.75 1338.87 M949.241 1329.82 Q949.241 1325.12 947.296 1322.45 Q945.375 1319.77 941.995 1319.77 Q938.616 1319.77 936.671 1322.45 Q934.75 1325.12 934.75 1329.82 Q934.75 1334.51 936.671 1337.2 Q938.616 1339.86 941.995 1339.86 Q945.375 1339.86 947.296 1337.2 Q949.241 1334.51 949.241 1329.82 Z" fill="#000000" fill-rule="nonzero" fill-opacity="1" /><path clip-path="url(#clip400)" d="M970.768 1319.82 Q967.342 1319.82 965.352 1322.5 Q963.361 1325.16 963.361 1329.82 Q963.361 1334.47 965.328 1337.15 Q967.319 1339.82 970.768 1339.82 Q974.171 1339.82 976.162 1337.13 Q978.152 1334.45 978.152 1329.82 Q978.152 1325.21 976.162 1322.52 Q974.171 1319.82 970.768 1319.82 M970.768 1316.2 Q976.324 1316.2 979.495 1319.82 Q982.666 1323.43 982.666 1329.82 Q982.666 1336.18 979.495 1339.82 Q976.324 1343.43 970.768 1343.43 Q965.19 1343.43 962.018 1339.82 Q958.87 1336.18 958.87 1329.82 Q958.87 1323.43 962.018 1319.82 Q965.19 1316.2 970.768 1316.2 Z" fill="#000000" fill-rule="nonzero" fill-opacity="1" /><path clip-path="url(#clip400)" d="M989.726 1306.74 L993.986 1306.74 L993.986 1342.76 L989.726 1342.76 L989.726 1306.74 Z" fill="#000000" fill-rule="nonzero" fill-opacity="1" /><path clip-path="url(#clip400)" d="M1014.68 1329.72 Q1009.52 1329.72 1007.53 1330.9 Q1005.54 1332.08 1005.54 1334.93 Q1005.54 1337.2 1007.02 1338.54 Q1008.52 1339.86 1011.09 1339.86 Q1014.63 1339.86 1016.76 1337.36 Q1018.92 1334.84 1018.92 1330.67 L1018.92 1329.72 L1014.68 1329.72 M1023.18 1327.96 L1023.18 1342.76 L1018.92 1342.76 L1018.92 1338.82 Q1017.46 1341.18 1015.28 1342.32 Q1013.11 1343.43 1009.96 1343.43 Q1005.98 1343.43 1003.62 1341.2 Q1001.28 1338.96 1001.28 1335.21 Q1001.28 1330.83 1004.19 1328.61 Q1007.13 1326.39 1012.94 1326.39 L1018.92 1326.39 L1018.92 1325.97 Q1018.92 1323.03 1016.97 1321.44 Q1015.05 1319.82 1011.56 1319.82 Q1009.33 1319.82 1007.23 1320.35 Q1005.12 1320.88 1003.18 1321.95 L1003.18 1318.01 Q1005.51 1317.11 1007.71 1316.67 Q1009.91 1316.2 1011.99 1316.2 Q1017.62 1316.2 1020.4 1319.12 Q1023.18 1322.04 1023.18 1327.96 Z" fill="#000000" fill-rule="nonzero" fill-opacity="1" /><path clip-path="url(#clip400)" d="M1036.16 1309.47 L1036.16 1316.83 L1044.93 1316.83 L1044.93 1320.14 L1036.16 1320.14 L1036.16 1334.21 Q1036.16 1337.38 1037.02 1338.29 Q1037.9 1339.19 1040.56 1339.19 L1044.93 1339.19 L1044.93 1342.76 L1040.56 1342.76 Q1035.63 1342.76 1033.75 1340.93 Q1031.88 1339.07 1031.88 1334.21 L1031.88 1320.14 L1028.75 1320.14 L1028.75 1316.83 L1031.88 1316.83 L1031.88 1309.47 L1036.16 1309.47 Z" fill="#000000" fill-rule="nonzero" fill-opacity="1" /><path clip-path="url(#clip400)" d="M1072.71 1328.73 L1072.71 1330.81 L1053.13 1330.81 Q1053.41 1335.21 1055.77 1337.52 Q1058.15 1339.82 1062.39 1339.82 Q1064.84 1339.82 1067.13 1339.21 Q1069.45 1338.61 1071.72 1337.41 L1071.72 1341.44 Q1069.43 1342.41 1067.02 1342.92 Q1064.61 1343.43 1062.13 1343.43 Q1055.93 1343.43 1052.3 1339.82 Q1048.68 1336.2 1048.68 1330.05 Q1048.68 1323.68 1052.11 1319.95 Q1055.56 1316.2 1061.39 1316.2 Q1066.62 1316.2 1069.66 1319.58 Q1072.71 1322.94 1072.71 1328.73 M1068.45 1327.48 Q1068.41 1323.98 1066.49 1321.9 Q1064.59 1319.82 1061.44 1319.82 Q1057.87 1319.82 1055.72 1321.83 Q1053.59 1323.84 1053.27 1327.5 L1068.45 1327.48 Z" fill="#000000" fill-rule="nonzero" fill-opacity="1" /><path clip-path="url(#clip400)" d="M1096.76 1320.76 L1096.76 1306.74 L1101.02 1306.74 L1101.02 1342.76 L1096.76 1342.76 L1096.76 1338.87 Q1095.42 1341.18 1093.36 1342.32 Q1091.32 1343.43 1088.45 1343.43 Q1083.75 1343.43 1080.79 1339.68 Q1077.85 1335.93 1077.85 1329.82 Q1077.85 1323.7 1080.79 1319.95 Q1083.75 1316.2 1088.45 1316.2 Q1091.32 1316.2 1093.36 1317.34 Q1095.42 1318.45 1096.76 1320.76 M1082.25 1329.82 Q1082.25 1334.51 1084.17 1337.2 Q1086.11 1339.86 1089.49 1339.86 Q1092.87 1339.86 1094.82 1337.2 Q1096.76 1334.51 1096.76 1329.82 Q1096.76 1325.12 1094.82 1322.45 Q1092.87 1319.77 1089.49 1319.77 Q1086.11 1319.77 1084.17 1322.45 Q1082.25 1325.12 1082.25 1329.82 Z" fill="#000000" fill-rule="nonzero" fill-opacity="1" /><path clip-path="url(#clip400)" d="M1137.99 1306.74 L1137.99 1310.28 L1133.92 1310.28 Q1131.62 1310.28 1130.72 1311.2 Q1129.84 1312.13 1129.84 1314.54 L1129.84 1316.83 L1136.86 1316.83 L1136.86 1320.14 L1129.84 1320.14 L1129.84 1342.76 L1125.56 1342.76 L1125.56 1320.14 L1121.49 1320.14 L1121.49 1316.83 L1125.56 1316.83 L1125.56 1315.02 Q1125.56 1310.7 1127.57 1308.73 Q1129.59 1306.74 1133.96 1306.74 L1137.99 1306.74 Z" fill="#000000" fill-rule="nonzero" fill-opacity="1" /><path clip-path="url(#clip400)" d="M1141.11 1332.52 L1141.11 1316.83 L1145.37 1316.83 L1145.37 1332.36 Q1145.37 1336.04 1146.81 1337.89 Q1148.24 1339.72 1151.11 1339.72 Q1154.56 1339.72 1156.55 1337.52 Q1158.57 1335.32 1158.57 1331.53 L1158.57 1316.83 L1162.83 1316.83 L1162.83 1342.76 L1158.57 1342.76 L1158.57 1338.77 Q1157.02 1341.13 1154.96 1342.29 Q1152.92 1343.43 1150.21 1343.43 Q1145.74 1343.43 1143.43 1340.65 Q1141.11 1337.87 1141.11 1332.52 M1151.83 1316.2 L1151.83 1316.2 Z" fill="#000000" fill-rule="nonzero" fill-opacity="1" /><path clip-path="url(#clip400)" d="M1193.15 1327.11 L1193.15 1342.76 L1188.89 1342.76 L1188.89 1327.25 Q1188.89 1323.57 1187.46 1321.74 Q1186.02 1319.91 1183.15 1319.91 Q1179.7 1319.91 1177.71 1322.11 Q1175.72 1324.31 1175.72 1328.1 L1175.72 1342.76 L1171.44 1342.76 L1171.44 1316.83 L1175.72 1316.83 L1175.72 1320.86 Q1177.25 1318.52 1179.31 1317.36 Q1181.39 1316.2 1184.1 1316.2 Q1188.57 1316.2 1190.86 1318.98 Q1193.15 1321.74 1193.15 1327.11 Z" fill="#000000" fill-rule="nonzero" fill-opacity="1" /><path clip-path="url(#clip400)" d="M1220.3 1317.82 L1220.3 1321.81 Q1218.5 1320.81 1216.67 1320.32 Q1214.86 1319.82 1213.01 1319.82 Q1208.87 1319.82 1206.58 1322.45 Q1204.29 1325.07 1204.29 1329.82 Q1204.29 1334.56 1206.58 1337.2 Q1208.87 1339.82 1213.01 1339.82 Q1214.86 1339.82 1216.67 1339.33 Q1218.5 1338.82 1220.3 1337.82 L1220.3 1341.76 Q1218.52 1342.59 1216.6 1343.01 Q1214.7 1343.43 1212.55 1343.43 Q1206.69 1343.43 1203.24 1339.75 Q1199.79 1336.07 1199.79 1329.82 Q1199.79 1323.47 1203.27 1319.84 Q1206.76 1316.2 1212.83 1316.2 Q1214.79 1316.2 1216.67 1316.62 Q1218.54 1317.01 1220.3 1317.82 Z" fill="#000000" fill-rule="nonzero" fill-opacity="1" /><path clip-path="url(#clip400)" d="M1231.92 1309.47 L1231.92 1316.83 L1240.7 1316.83 L1240.7 1320.14 L1231.92 1320.14 L1231.92 1334.21 Q1231.92 1337.38 1232.78 1338.29 Q1233.66 1339.19 1236.32 1339.19 L1240.7 1339.19 L1240.7 1342.76 L1236.32 1342.76 Q1231.39 1342.76 1229.52 1340.93 Q1227.64 1339.07 1227.64 1334.21 L1227.64 1320.14 L1224.52 1320.14 L1224.52 1316.83 L1227.64 1316.83 L1227.64 1309.47 L1231.92 1309.47 Z" fill="#000000" fill-rule="nonzero" fill-opacity="1" /><path clip-path="url(#clip400)" d="M1246.3 1316.83 L1250.56 1316.83 L1250.56 1342.76 L1246.3 1342.76 L1246.3 1316.83 M1246.3 1306.74 L1250.56 1306.74 L1250.56 1312.13 L1246.3 1312.13 L1246.3 1306.74 Z" fill="#000000" fill-rule="nonzero" fill-opacity="1" /><path clip-path="url(#clip400)" d="M1269.52 1319.82 Q1266.09 1319.82 1264.1 1322.5 Q1262.11 1325.16 1262.11 1329.82 Q1262.11 1334.47 1264.08 1337.15 Q1266.07 1339.82 1269.52 1339.82 Q1272.92 1339.82 1274.91 1337.13 Q1276.9 1334.45 1276.9 1329.82 Q1276.9 1325.21 1274.91 1322.52 Q1272.92 1319.82 1269.52 1319.82 M1269.52 1316.2 Q1275.07 1316.2 1278.24 1319.82 Q1281.41 1323.43 1281.41 1329.82 Q1281.41 1336.18 1278.24 1339.82 Q1275.07 1343.43 1269.52 1343.43 Q1263.94 1343.43 1260.77 1339.82 Q1257.62 1336.18 1257.62 1329.82 Q1257.62 1323.43 1260.77 1319.82 Q1263.94 1316.2 1269.52 1316.2 Z" fill="#000000" fill-rule="nonzero" fill-opacity="1" /><path clip-path="url(#clip400)" d="M1310.03 1327.11 L1310.03 1342.76 L1305.77 1342.76 L1305.77 1327.25 Q1305.77 1323.57 1304.33 1321.74 Q1302.9 1319.91 1300.03 1319.91 Q1296.58 1319.91 1294.59 1322.11 Q1292.6 1324.31 1292.6 1328.1 L1292.6 1342.76 L1288.31 1342.76 L1288.31 1316.83 L1292.6 1316.83 L1292.6 1320.86 Q1294.12 1318.52 1296.18 1317.36 Q1298.27 1316.2 1300.97 1316.2 Q1305.44 1316.2 1307.73 1318.98 Q1310.03 1321.74 1310.03 1327.11 Z" fill="#000000" fill-rule="nonzero" fill-opacity="1" /></svg>
